{
  "header": {
    "PPQ": 96,
    "timeSignature": [
      4,
      4
    ],
    "bpm": 120,
    "name": ""
  },
  "tempo": [],
  "timeSignature": [
    {
      "absoluteTime": 0,
      "seconds": 0,
      "numerator": 4,
      "denominator": 2,
      "click": 36,
      "notesQ": 8
    },
    {
      "absoluteTime": 0,
      "seconds": 0,
      "numerator": 4,
      "denominator": 2,
      "click": 36,
      "notesQ": 8
    }
  ],
  "startTime": 0.5,
  "duration": 6.052083333333333,
  "tracks": [
    {
      "startTime": 0.5,
      "duration": 6.052083333333333,
      "length": 26,
      "notes": [
        {
          "name": "A#2",
          "midi": 46,
          "time": 0.5,
          "velocity": 1,
          "duration": 0.04166666666666663
        },
        {
          "name": "C3",
          "midi": 48,
          "time": 0.75,
          "velocity": 1,
          "duration": 0.140625
        },
        {
          "name": "D#3",
          "midi": 51,
          "time": 1,
          "velocity": 1,
          "duration": 0.04166666666666674
        },
        {
          "name": "A2",
          "midi": 45,
          "time": 1.25,
          "velocity": 1,
          "duration": 0.05208333333333326
        },
        {
          "name": "C#3",
          "midi": 49,
          "time": 1.25,
          "velocity": 1,
          "duration": 0.05208333333333326
        },
        {
          "name": "A#2",
          "midi": 46,
          "time": 1.5,
          "velocity": 1,
          "duration": 0.05208333333333326
        },
        {
          "name": "C3",
          "midi": 48,
          "time": 1.5,
          "velocity": 1,
          "duration": 0.05208333333333326
        },
        {
          "name": "D#3",
          "midi": 51,
          "time": 1.75,
          "velocity": 1,
          "duration": 0.05208333333333326
        },
        {
          "name": "A2",
          "midi": 45,
          "time": 2,
          "velocity": 1,
          "duration": 0.04166666666666652
        },
        {
          "name": "C3",
          "midi": 48,
          "time": 2.25,
          "velocity": 1,
          "duration": 0.05208333333333348
        },
        {
          "name": "C#3",
          "midi": 49,
          "time": 2.25,
          "velocity": 1,
          "duration": 0.05208333333333348
        },
        {
          "name": "A#2",
          "midi": 46,
          "time": 2.5,
          "velocity": 1,
          "duration": 0.046875
        },
        {
          "name": "D#3",
          "midi": 51,
          "time": 2.75,
          "velocity": 1,
          "duration": 0.05208333333333348
        },
        {
          "name": "C3",
          "midi": 48,
          "time": 3,
          "velocity": 1,
          "duration": 0.05208333333333348
        },
        {
          "name": "A2",
          "midi": 45,
          "time": 3.25,
          "velocity": 1,
          "duration": 0.05208333333333348
        },
        {
          "name": "C#3",
          "midi": 49,
          "time": 3.25,
          "velocity": 1,
          "duration": 0.046875
        },
        {
          "name": "A#2",
          "midi": 46,
          "time": 3.5,
          "velocity": 1,
          "duration": 0.04166666666666652
        },
        {
          "name": "C3",
          "midi": 48,
          "time": 3.75,
          "velocity": 1,
          "duration": 0.046875
        },
        {
          "name": "D#3",
          "midi": 51,
          "time": 4,
          "velocity": 1,
          "duration": 0.05208333333333304
        },
        {
          "name": "A#2",
          "midi": 46,
          "time": 4.5,
          "velocity": 1,
          "duration": 0.07291666666666696
        },
        {
          "name": "C3",
          "midi": 48,
          "time": 4.5,
          "velocity": 1,
          "duration": 0.07291666666666696
        },
        {
          "name": "C3",
          "midi": 48,
          "time": 5,
          "velocity": 1,
          "duration": 0.05208333333333304
        },
        {
          "name": "D#3",
          "midi": 51,
          "time": 5,
          "velocity": 1,
          "duration": 0.05208333333333304
        },
        {
          "name": "A2",
          "midi": 45,
          "time": 5.5,
          "velocity": 1,
          "duration": 0.05208333333333304
        },
        {
          "name": "C#3",
          "midi": 49,
          "time": 5.5,
          "velocity": 1,
          "duration": 0.05208333333333304
        },
        {
          "name": "A#2",
          "midi": 46,
          "time": 6,
          "velocity": 1,
          "duration": 0.05208333333333304
        }
      ],
      "controlChanges": {},
      "id": 0,
      "name": "1-707 Core Kit 17",
      "channelNumber": 0,
      "isPercussion": false
    }
  ]
}