{
  "header": {
    "PPQ": 96,
    "timeSignature": [
      4,
      4
    ],
    "bpm": 120,
    "name": ""
  },
  "tempo": [],
  "timeSignature": [
    {
      "absoluteTime": 0,
      "seconds": 0,
      "numerator": 4,
      "denominator": 2,
      "click": 36,
      "notesQ": 8
    },
    {
      "absoluteTime": 0,
      "seconds": 0,
      "numerator": 4,
      "denominator": 2,
      "click": 36,
      "notesQ": 8
    }
  ],
  "startTime": 0,
  "duration": 110.5,
  "tracks": [
    {
      "startTime": 0,
      "duration": 110.5,
      "length": 341,
      "notes": [
        {
          "name": "A2",
          "midi": 45,
          "time": 0,
          "velocity": 1,
          "duration": 0.5
        },
        {
          "name": "A#2",
          "midi": 46,
          "time": 0,
          "velocity": 1,
          "duration": 0.5
        },
        {
          "name": "D2",
          "midi": 38,
          "time": 1,
          "velocity": 1,
          "duration": 0.5
        },
        {
          "name": "A#2",
          "midi": 46,
          "time": 1,
          "velocity": 1,
          "duration": 0.5
        },
        {
          "name": "A2",
          "midi": 45,
          "time": 1.5,
          "velocity": 1,
          "duration": 0.5
        },
        {
          "name": "A#2",
          "midi": 46,
          "time": 1.5,
          "velocity": 1,
          "duration": 0.5
        },
        {
          "name": "D2",
          "midi": 38,
          "time": 2,
          "velocity": 1,
          "duration": 0.5
        },
        {
          "name": "A#2",
          "midi": 46,
          "time": 2,
          "velocity": 1,
          "duration": 0.5
        },
        {
          "name": "A2",
          "midi": 45,
          "time": 2.5,
          "velocity": 1,
          "duration": 0.5
        },
        {
          "name": "A#2",
          "midi": 46,
          "time": 2.5,
          "velocity": 1,
          "duration": 0.5
        },
        {
          "name": "D2",
          "midi": 38,
          "time": 3,
          "velocity": 1,
          "duration": 0.5
        },
        {
          "name": "A#2",
          "midi": 46,
          "time": 3,
          "velocity": 1,
          "duration": 0.5
        },
        {
          "name": "A2",
          "midi": 45,
          "time": 3.5,
          "velocity": 1,
          "duration": 0.5
        },
        {
          "name": "A#2",
          "midi": 46,
          "time": 3.5,
          "velocity": 1,
          "duration": 0.5
        },
        {
          "name": "D2",
          "midi": 38,
          "time": 4,
          "velocity": 1,
          "duration": 0.5
        },
        {
          "name": "A#2",
          "midi": 46,
          "time": 4,
          "velocity": 1,
          "duration": 0.5
        },
        {
          "name": "C#3",
          "midi": 49,
          "time": 4,
          "velocity": 1,
          "duration": 0.5
        },
        {
          "name": "A2",
          "midi": 45,
          "time": 4.5,
          "velocity": 1,
          "duration": 0.5
        },
        {
          "name": "A#2",
          "midi": 46,
          "time": 4.5,
          "velocity": 1,
          "duration": 0.5
        },
        {
          "name": "D2",
          "midi": 38,
          "time": 5,
          "velocity": 1,
          "duration": 0.5
        },
        {
          "name": "A#2",
          "midi": 46,
          "time": 5,
          "velocity": 1,
          "duration": 0.5
        },
        {
          "name": "D2",
          "midi": 38,
          "time": 5.5,
          "velocity": 1,
          "duration": 0.5
        },
        {
          "name": "A2",
          "midi": 45,
          "time": 5.5,
          "velocity": 1,
          "duration": 0.5
        },
        {
          "name": "A#2",
          "midi": 46,
          "time": 5.5,
          "velocity": 1,
          "duration": 0.5
        },
        {
          "name": "A#2",
          "midi": 46,
          "time": 6,
          "velocity": 1,
          "duration": 0.5
        },
        {
          "name": "C#3",
          "midi": 49,
          "time": 6,
          "velocity": 1,
          "duration": 0.5
        },
        {
          "name": "D2",
          "midi": 38,
          "time": 6.5,
          "velocity": 1,
          "duration": 0.5
        },
        {
          "name": "A2",
          "midi": 45,
          "time": 6.5,
          "velocity": 1,
          "duration": 0.5
        },
        {
          "name": "A#2",
          "midi": 46,
          "time": 6.5,
          "velocity": 1,
          "duration": 0.5
        },
        {
          "name": "A#2",
          "midi": 46,
          "time": 7,
          "velocity": 1,
          "duration": 0.5
        },
        {
          "name": "A2",
          "midi": 45,
          "time": 7.5,
          "velocity": 1,
          "duration": 0.5
        },
        {
          "name": "A#2",
          "midi": 46,
          "time": 7.5,
          "velocity": 1,
          "duration": 0.5
        },
        {
          "name": "C3",
          "midi": 48,
          "time": 7.5,
          "velocity": 1,
          "duration": 0.5
        },
        {
          "name": "A2",
          "midi": 45,
          "time": 8,
          "velocity": 1,
          "duration": 0.5
        },
        {
          "name": "A#2",
          "midi": 46,
          "time": 8,
          "velocity": 1,
          "duration": 0.5
        },
        {
          "name": "C3",
          "midi": 48,
          "time": 8,
          "velocity": 1,
          "duration": 0.5
        },
        {
          "name": "A#2",
          "midi": 46,
          "time": 8.5,
          "velocity": 1,
          "duration": 0.5
        },
        {
          "name": "D2",
          "midi": 38,
          "time": 9,
          "velocity": 1,
          "duration": 0.5
        },
        {
          "name": "D2",
          "midi": 38,
          "time": 9.5,
          "velocity": 1,
          "duration": 0.5
        },
        {
          "name": "A2",
          "midi": 45,
          "time": 9.5,
          "velocity": 1,
          "duration": 0.5
        },
        {
          "name": "A#2",
          "midi": 46,
          "time": 9.5,
          "velocity": 1,
          "duration": 0.5
        },
        {
          "name": "C#3",
          "midi": 49,
          "time": 10,
          "velocity": 1,
          "duration": 0.5
        },
        {
          "name": "D2",
          "midi": 38,
          "time": 10.5,
          "velocity": 1,
          "duration": 0.5
        },
        {
          "name": "A#2",
          "midi": 46,
          "time": 10.5,
          "velocity": 1,
          "duration": 0.5
        },
        {
          "name": "C3",
          "midi": 48,
          "time": 10.5,
          "velocity": 1,
          "duration": 0.5
        },
        {
          "name": "A2",
          "midi": 45,
          "time": 11,
          "velocity": 1,
          "duration": 0.5
        },
        {
          "name": "A#2",
          "midi": 46,
          "time": 11,
          "velocity": 1,
          "duration": 0.5
        },
        {
          "name": "D2",
          "midi": 38,
          "time": 11.5,
          "velocity": 1,
          "duration": 0.5
        },
        {
          "name": "A2",
          "midi": 45,
          "time": 11.5,
          "velocity": 1,
          "duration": 0.5
        },
        {
          "name": "A#2",
          "midi": 46,
          "time": 11.5,
          "velocity": 1,
          "duration": 0.5
        },
        {
          "name": "A#2",
          "midi": 46,
          "time": 12,
          "velocity": 1,
          "duration": 0.5
        },
        {
          "name": "C#3",
          "midi": 49,
          "time": 12,
          "velocity": 1,
          "duration": 0.5
        },
        {
          "name": "D2",
          "midi": 38,
          "time": 12.5,
          "velocity": 1,
          "duration": 0.5
        },
        {
          "name": "A2",
          "midi": 45,
          "time": 12.5,
          "velocity": 1,
          "duration": 0.5
        },
        {
          "name": "A#2",
          "midi": 46,
          "time": 12.5,
          "velocity": 1,
          "duration": 0.5
        },
        {
          "name": "A2",
          "midi": 45,
          "time": 13,
          "velocity": 1,
          "duration": 0.5
        },
        {
          "name": "A#2",
          "midi": 46,
          "time": 13,
          "velocity": 1,
          "duration": 0.5
        },
        {
          "name": "D2",
          "midi": 38,
          "time": 13.5,
          "velocity": 1,
          "duration": 0.5
        },
        {
          "name": "A2",
          "midi": 45,
          "time": 13.5,
          "velocity": 1,
          "duration": 0.5
        },
        {
          "name": "A#2",
          "midi": 46,
          "time": 13.5,
          "velocity": 1,
          "duration": 0.5
        },
        {
          "name": "A2",
          "midi": 45,
          "time": 14,
          "velocity": 1,
          "duration": 0.5
        },
        {
          "name": "A#2",
          "midi": 46,
          "time": 14,
          "velocity": 1,
          "duration": 0.5
        },
        {
          "name": "C#3",
          "midi": 49,
          "time": 14,
          "velocity": 1,
          "duration": 0.5
        },
        {
          "name": "A2",
          "midi": 45,
          "time": 14.5,
          "velocity": 1,
          "duration": 0.5
        },
        {
          "name": "A#2",
          "midi": 46,
          "time": 14.5,
          "velocity": 1,
          "duration": 0.5
        },
        {
          "name": "A2",
          "midi": 45,
          "time": 15,
          "velocity": 1,
          "duration": 0.5
        },
        {
          "name": "A#2",
          "midi": 46,
          "time": 15,
          "velocity": 1,
          "duration": 0.5
        },
        {
          "name": "C3",
          "midi": 48,
          "time": 15.5,
          "velocity": 1,
          "duration": 0.5
        },
        {
          "name": "C3",
          "midi": 48,
          "time": 16,
          "velocity": 1,
          "duration": 0.5
        },
        {
          "name": "A2",
          "midi": 45,
          "time": 16.5,
          "velocity": 1,
          "duration": 0.5
        },
        {
          "name": "A#2",
          "midi": 46,
          "time": 16.5,
          "velocity": 1,
          "duration": 0.5
        },
        {
          "name": "A2",
          "midi": 45,
          "time": 17,
          "velocity": 1,
          "duration": 0.5
        },
        {
          "name": "A#2",
          "midi": 46,
          "time": 17,
          "velocity": 1,
          "duration": 0.5
        },
        {
          "name": "A2",
          "midi": 45,
          "time": 17.5,
          "velocity": 1,
          "duration": 0.5
        },
        {
          "name": "A#2",
          "midi": 46,
          "time": 17.5,
          "velocity": 1,
          "duration": 0.5
        },
        {
          "name": "A2",
          "midi": 45,
          "time": 18,
          "velocity": 1,
          "duration": 0.5
        },
        {
          "name": "A#2",
          "midi": 46,
          "time": 18,
          "velocity": 1,
          "duration": 0.5
        },
        {
          "name": "A#2",
          "midi": 46,
          "time": 18.5,
          "velocity": 1,
          "duration": 0.5
        },
        {
          "name": "A2",
          "midi": 45,
          "time": 19,
          "velocity": 1,
          "duration": 0.5
        },
        {
          "name": "A#2",
          "midi": 46,
          "time": 19,
          "velocity": 1,
          "duration": 0.5
        },
        {
          "name": "D2",
          "midi": 38,
          "time": 20,
          "velocity": 1,
          "duration": 0.5
        },
        {
          "name": "A2",
          "midi": 45,
          "time": 20,
          "velocity": 1,
          "duration": 0.5
        },
        {
          "name": "A2",
          "midi": 45,
          "time": 20.5,
          "velocity": 1,
          "duration": 0.5
        },
        {
          "name": "A#2",
          "midi": 46,
          "time": 20.5,
          "velocity": 1,
          "duration": 0.5
        },
        {
          "name": "A2",
          "midi": 45,
          "time": 21,
          "velocity": 1,
          "duration": 0.5
        },
        {
          "name": "A#2",
          "midi": 46,
          "time": 21,
          "velocity": 1,
          "duration": 0.5
        },
        {
          "name": "A2",
          "midi": 45,
          "time": 22.5,
          "velocity": 1,
          "duration": 0.5
        },
        {
          "name": "A#2",
          "midi": 46,
          "time": 22.5,
          "velocity": 1,
          "duration": 0.5
        },
        {
          "name": "A2",
          "midi": 45,
          "time": 23,
          "velocity": 1,
          "duration": 0.5
        },
        {
          "name": "A#2",
          "midi": 46,
          "time": 23,
          "velocity": 1,
          "duration": 0.5
        },
        {
          "name": "D2",
          "midi": 38,
          "time": 24,
          "velocity": 1,
          "duration": 0.5
        },
        {
          "name": "A2",
          "midi": 45,
          "time": 24.5,
          "velocity": 1,
          "duration": 0.5
        },
        {
          "name": "A#2",
          "midi": 46,
          "time": 24.5,
          "velocity": 1,
          "duration": 0.5
        },
        {
          "name": "A2",
          "midi": 45,
          "time": 25,
          "velocity": 1,
          "duration": 0.5
        },
        {
          "name": "A2",
          "midi": 45,
          "time": 25.5,
          "velocity": 1,
          "duration": 0.5
        },
        {
          "name": "A#2",
          "midi": 46,
          "time": 25.5,
          "velocity": 1,
          "duration": 0.5
        },
        {
          "name": "A2",
          "midi": 45,
          "time": 26.5,
          "velocity": 1,
          "duration": 0.5
        },
        {
          "name": "A#2",
          "midi": 46,
          "time": 26.5,
          "velocity": 1,
          "duration": 0.5
        },
        {
          "name": "A2",
          "midi": 45,
          "time": 27,
          "velocity": 1,
          "duration": 0.5
        },
        {
          "name": "A#2",
          "midi": 46,
          "time": 27,
          "velocity": 1,
          "duration": 0.5
        },
        {
          "name": "D2",
          "midi": 38,
          "time": 28,
          "velocity": 1,
          "duration": 0.5
        },
        {
          "name": "A2",
          "midi": 45,
          "time": 28.5,
          "velocity": 1,
          "duration": 0.5
        },
        {
          "name": "A#2",
          "midi": 46,
          "time": 28.5,
          "velocity": 1,
          "duration": 0.5
        },
        {
          "name": "A2",
          "midi": 45,
          "time": 29,
          "velocity": 1,
          "duration": 0.5
        },
        {
          "name": "A#2",
          "midi": 46,
          "time": 29,
          "velocity": 1,
          "duration": 0.5
        },
        {
          "name": "A#2",
          "midi": 46,
          "time": 29.5,
          "velocity": 1,
          "duration": 0.5
        },
        {
          "name": "A2",
          "midi": 45,
          "time": 30.5,
          "velocity": 1,
          "duration": 0.5
        },
        {
          "name": "A#2",
          "midi": 46,
          "time": 30.5,
          "velocity": 1,
          "duration": 0.5
        },
        {
          "name": "A#2",
          "midi": 46,
          "time": 31,
          "velocity": 1,
          "duration": 0.5
        },
        {
          "name": "D2",
          "midi": 38,
          "time": 31.5,
          "velocity": 1,
          "duration": 0.5
        },
        {
          "name": "A2",
          "midi": 45,
          "time": 31.5,
          "velocity": 1,
          "duration": 0.5
        },
        {
          "name": "A#2",
          "midi": 46,
          "time": 31.5,
          "velocity": 1,
          "duration": 0.5
        },
        {
          "name": "A2",
          "midi": 45,
          "time": 32.5,
          "velocity": 1,
          "duration": 0.5
        },
        {
          "name": "A#2",
          "midi": 46,
          "time": 32.5,
          "velocity": 1,
          "duration": 0.5
        },
        {
          "name": "D2",
          "midi": 38,
          "time": 33,
          "velocity": 1,
          "duration": 0.5
        },
        {
          "name": "A2",
          "midi": 45,
          "time": 33,
          "velocity": 1,
          "duration": 0.5
        },
        {
          "name": "A#2",
          "midi": 46,
          "time": 33,
          "velocity": 1,
          "duration": 0.5
        },
        {
          "name": "A2",
          "midi": 45,
          "time": 34.5,
          "velocity": 1,
          "duration": 0.5
        },
        {
          "name": "A#2",
          "midi": 46,
          "time": 34.5,
          "velocity": 1,
          "duration": 0.5
        },
        {
          "name": "D2",
          "midi": 38,
          "time": 35,
          "velocity": 1,
          "duration": 0.5
        },
        {
          "name": "A2",
          "midi": 45,
          "time": 35,
          "velocity": 1,
          "duration": 0.5
        },
        {
          "name": "A#2",
          "midi": 46,
          "time": 35,
          "velocity": 1,
          "duration": 0.5
        },
        {
          "name": "C3",
          "midi": 48,
          "time": 36.5,
          "velocity": 1,
          "duration": 0.5
        },
        {
          "name": "C3",
          "midi": 48,
          "time": 37,
          "velocity": 1,
          "duration": 0.5
        },
        {
          "name": "C#3",
          "midi": 49,
          "time": 38,
          "velocity": 1,
          "duration": 0.5
        },
        {
          "name": "A2",
          "midi": 45,
          "time": 40.5,
          "velocity": 1,
          "duration": 0.5
        },
        {
          "name": "A#2",
          "midi": 46,
          "time": 40.5,
          "velocity": 1,
          "duration": 0.5
        },
        {
          "name": "A2",
          "midi": 45,
          "time": 41,
          "velocity": 1,
          "duration": 0.5
        },
        {
          "name": "A#2",
          "midi": 46,
          "time": 41,
          "velocity": 1,
          "duration": 0.5
        },
        {
          "name": "A2",
          "midi": 45,
          "time": 42.5,
          "velocity": 1,
          "duration": 0.5
        },
        {
          "name": "A#2",
          "midi": 46,
          "time": 42.5,
          "velocity": 1,
          "duration": 0.5
        },
        {
          "name": "A2",
          "midi": 45,
          "time": 43,
          "velocity": 1,
          "duration": 0.5
        },
        {
          "name": "A#2",
          "midi": 46,
          "time": 43,
          "velocity": 1,
          "duration": 0.5
        },
        {
          "name": "A2",
          "midi": 45,
          "time": 44,
          "velocity": 1,
          "duration": 0.5
        },
        {
          "name": "C3",
          "midi": 48,
          "time": 44.5,
          "velocity": 1,
          "duration": 0.5
        },
        {
          "name": "C3",
          "midi": 48,
          "time": 45,
          "velocity": 1,
          "duration": 0.5
        },
        {
          "name": "D2",
          "midi": 38,
          "time": 46,
          "velocity": 1,
          "duration": 0.5
        },
        {
          "name": "C#3",
          "midi": 49,
          "time": 46,
          "velocity": 1,
          "duration": 0.5
        },
        {
          "name": "C3",
          "midi": 48,
          "time": 48,
          "velocity": 1,
          "duration": 0.5
        },
        {
          "name": "A#2",
          "midi": 46,
          "time": 48.5,
          "velocity": 1,
          "duration": 0.5
        },
        {
          "name": "A2",
          "midi": 45,
          "time": 49,
          "velocity": 1,
          "duration": 0.5
        },
        {
          "name": "A#2",
          "midi": 46,
          "time": 49,
          "velocity": 1,
          "duration": 0.5
        },
        {
          "name": "A2",
          "midi": 45,
          "time": 49.5,
          "velocity": 1,
          "duration": 0.5
        },
        {
          "name": "A#2",
          "midi": 46,
          "time": 49.5,
          "velocity": 1,
          "duration": 0.5
        },
        {
          "name": "C3",
          "midi": 48,
          "time": 49.5,
          "velocity": 1,
          "duration": 0.5
        },
        {
          "name": "A#2",
          "midi": 46,
          "time": 50,
          "velocity": 1,
          "duration": 0.5
        },
        {
          "name": "C3",
          "midi": 48,
          "time": 50,
          "velocity": 1,
          "duration": 0.5
        },
        {
          "name": "A2",
          "midi": 45,
          "time": 51,
          "velocity": 1,
          "duration": 0.5
        },
        {
          "name": "A#2",
          "midi": 46,
          "time": 51,
          "velocity": 1,
          "duration": 0.5
        },
        {
          "name": "C3",
          "midi": 48,
          "time": 51,
          "velocity": 1,
          "duration": 0.5
        },
        {
          "name": "A2",
          "midi": 45,
          "time": 51.5,
          "velocity": 1,
          "duration": 0.5
        },
        {
          "name": "A#2",
          "midi": 46,
          "time": 51.5,
          "velocity": 1,
          "duration": 0.5
        },
        {
          "name": "D2",
          "midi": 38,
          "time": 52,
          "velocity": 1,
          "duration": 0.5
        },
        {
          "name": "C3",
          "midi": 48,
          "time": 54,
          "velocity": 1,
          "duration": 0.5
        },
        {
          "name": "A#2",
          "midi": 46,
          "time": 54.5,
          "velocity": 1,
          "duration": 0.5
        },
        {
          "name": "A2",
          "midi": 45,
          "time": 56.5,
          "velocity": 1,
          "duration": 0.5
        },
        {
          "name": "A#2",
          "midi": 46,
          "time": 56.5,
          "velocity": 1,
          "duration": 0.5
        },
        {
          "name": "C3",
          "midi": 48,
          "time": 56.5,
          "velocity": 1,
          "duration": 0.5
        },
        {
          "name": "A#2",
          "midi": 46,
          "time": 57,
          "velocity": 1,
          "duration": 0.5
        },
        {
          "name": "C3",
          "midi": 48,
          "time": 57,
          "velocity": 1,
          "duration": 0.5
        },
        {
          "name": "A2",
          "midi": 45,
          "time": 57.5,
          "velocity": 1,
          "duration": 0.5
        },
        {
          "name": "A#2",
          "midi": 46,
          "time": 57.5,
          "velocity": 1,
          "duration": 0.5
        },
        {
          "name": "A#2",
          "midi": 46,
          "time": 58.5,
          "velocity": 1,
          "duration": 0.5
        },
        {
          "name": "C3",
          "midi": 48,
          "time": 58.5,
          "velocity": 1,
          "duration": 0.5
        },
        {
          "name": "A2",
          "midi": 45,
          "time": 59,
          "velocity": 1,
          "duration": 0.5
        },
        {
          "name": "A#2",
          "midi": 46,
          "time": 59,
          "velocity": 1,
          "duration": 0.5
        },
        {
          "name": "A2",
          "midi": 45,
          "time": 59.5,
          "velocity": 1,
          "duration": 0.5
        },
        {
          "name": "A#2",
          "midi": 46,
          "time": 59.5,
          "velocity": 1,
          "duration": 0.5
        },
        {
          "name": "C3",
          "midi": 48,
          "time": 59.5,
          "velocity": 1,
          "duration": 0.5
        },
        {
          "name": "C3",
          "midi": 48,
          "time": 60.5,
          "velocity": 1,
          "duration": 0.5
        },
        {
          "name": "D#3",
          "midi": 51,
          "time": 60.5,
          "velocity": 1,
          "duration": 0.5
        },
        {
          "name": "C3",
          "midi": 48,
          "time": 61,
          "velocity": 1,
          "duration": 0.5
        },
        {
          "name": "C#3",
          "midi": 49,
          "time": 61,
          "velocity": 1,
          "duration": 0.5
        },
        {
          "name": "C3",
          "midi": 48,
          "time": 62.5,
          "velocity": 1,
          "duration": 0.5
        },
        {
          "name": "D#3",
          "midi": 51,
          "time": 62.5,
          "velocity": 1,
          "duration": 0.5
        },
        {
          "name": "C3",
          "midi": 48,
          "time": 63,
          "velocity": 1,
          "duration": 0.5
        },
        {
          "name": "C#3",
          "midi": 49,
          "time": 63,
          "velocity": 1,
          "duration": 0.5
        },
        {
          "name": "A2",
          "midi": 45,
          "time": 64,
          "velocity": 1,
          "duration": 0.5
        },
        {
          "name": "D#3",
          "midi": 51,
          "time": 64,
          "velocity": 1,
          "duration": 0.5
        },
        {
          "name": "D#3",
          "midi": 51,
          "time": 64.5,
          "velocity": 1,
          "duration": 0.5
        },
        {
          "name": "D2",
          "midi": 38,
          "time": 65,
          "velocity": 1,
          "duration": 0.5
        },
        {
          "name": "A2",
          "midi": 45,
          "time": 65.5,
          "velocity": 1,
          "duration": 0.5
        },
        {
          "name": "D#3",
          "midi": 51,
          "time": 65.5,
          "velocity": 1,
          "duration": 0.5
        },
        {
          "name": "D2",
          "midi": 38,
          "time": 66,
          "velocity": 1,
          "duration": 0.5
        },
        {
          "name": "D#3",
          "midi": 51,
          "time": 66,
          "velocity": 1,
          "duration": 0.5
        },
        {
          "name": "A2",
          "midi": 45,
          "time": 66.5,
          "velocity": 1,
          "duration": 0.5
        },
        {
          "name": "D#3",
          "midi": 51,
          "time": 66.5,
          "velocity": 1,
          "duration": 0.5
        },
        {
          "name": "D2",
          "midi": 38,
          "time": 67,
          "velocity": 1,
          "duration": 0.5
        },
        {
          "name": "D#3",
          "midi": 51,
          "time": 67,
          "velocity": 1,
          "duration": 0.5
        },
        {
          "name": "A2",
          "midi": 45,
          "time": 67.5,
          "velocity": 1,
          "duration": 0.5
        },
        {
          "name": "D#3",
          "midi": 51,
          "time": 67.5,
          "velocity": 1,
          "duration": 0.5
        },
        {
          "name": "D2",
          "midi": 38,
          "time": 68,
          "velocity": 1,
          "duration": 0.5
        },
        {
          "name": "C#3",
          "midi": 49,
          "time": 68,
          "velocity": 1,
          "duration": 0.5
        },
        {
          "name": "D#3",
          "midi": 51,
          "time": 68,
          "velocity": 1,
          "duration": 0.5
        },
        {
          "name": "A2",
          "midi": 45,
          "time": 68.5,
          "velocity": 1,
          "duration": 0.5
        },
        {
          "name": "D#3",
          "midi": 51,
          "time": 68.5,
          "velocity": 1,
          "duration": 0.5
        },
        {
          "name": "D2",
          "midi": 38,
          "time": 69,
          "velocity": 1,
          "duration": 0.5
        },
        {
          "name": "D#3",
          "midi": 51,
          "time": 69,
          "velocity": 1,
          "duration": 0.5
        },
        {
          "name": "D2",
          "midi": 38,
          "time": 69.5,
          "velocity": 1,
          "duration": 0.5
        },
        {
          "name": "A2",
          "midi": 45,
          "time": 69.5,
          "velocity": 1,
          "duration": 0.5
        },
        {
          "name": "D#3",
          "midi": 51,
          "time": 69.5,
          "velocity": 1,
          "duration": 0.5
        },
        {
          "name": "A2",
          "midi": 45,
          "time": 70.5,
          "velocity": 1,
          "duration": 0.5
        },
        {
          "name": "D#3",
          "midi": 51,
          "time": 70.5,
          "velocity": 1,
          "duration": 0.5
        },
        {
          "name": "D2",
          "midi": 38,
          "time": 71,
          "velocity": 1,
          "duration": 0.5
        },
        {
          "name": "D#3",
          "midi": 51,
          "time": 71,
          "velocity": 1,
          "duration": 0.5
        },
        {
          "name": "D2",
          "midi": 38,
          "time": 71.5,
          "velocity": 1,
          "duration": 0.5
        },
        {
          "name": "A2",
          "midi": 45,
          "time": 71.5,
          "velocity": 1,
          "duration": 0.5
        },
        {
          "name": "C#3",
          "midi": 49,
          "time": 71.5,
          "velocity": 1,
          "duration": 0.5
        },
        {
          "name": "D#3",
          "midi": 51,
          "time": 71.5,
          "velocity": 1,
          "duration": 0.5
        },
        {
          "name": "A2",
          "midi": 45,
          "time": 72,
          "velocity": 1,
          "duration": 0.5
        },
        {
          "name": "D#3",
          "midi": 51,
          "time": 72,
          "velocity": 1,
          "duration": 0.5
        },
        {
          "name": "D2",
          "midi": 38,
          "time": 72.5,
          "velocity": 1,
          "duration": 0.5
        },
        {
          "name": "D#3",
          "midi": 51,
          "time": 72.5,
          "velocity": 1,
          "duration": 0.5
        },
        {
          "name": "A2",
          "midi": 45,
          "time": 73,
          "velocity": 1,
          "duration": 0.5
        },
        {
          "name": "D#3",
          "midi": 51,
          "time": 73,
          "velocity": 1,
          "duration": 0.5
        },
        {
          "name": "D2",
          "midi": 38,
          "time": 73.5,
          "velocity": 1,
          "duration": 0.5
        },
        {
          "name": "D#3",
          "midi": 51,
          "time": 73.5,
          "velocity": 1,
          "duration": 0.5
        },
        {
          "name": "A2",
          "midi": 45,
          "time": 74,
          "velocity": 1,
          "duration": 0.5
        },
        {
          "name": "C#3",
          "midi": 49,
          "time": 74,
          "velocity": 1,
          "duration": 0.5
        },
        {
          "name": "D#3",
          "midi": 51,
          "time": 74,
          "velocity": 1,
          "duration": 0.5
        },
        {
          "name": "D2",
          "midi": 38,
          "time": 74.5,
          "velocity": 1,
          "duration": 0.5
        },
        {
          "name": "D#3",
          "midi": 51,
          "time": 74.5,
          "velocity": 1,
          "duration": 0.5
        },
        {
          "name": "A2",
          "midi": 45,
          "time": 75,
          "velocity": 1,
          "duration": 0.5
        },
        {
          "name": "D#3",
          "midi": 51,
          "time": 75,
          "velocity": 1,
          "duration": 0.5
        },
        {
          "name": "D2",
          "midi": 38,
          "time": 75.5,
          "velocity": 1,
          "duration": 0.5
        },
        {
          "name": "D#3",
          "midi": 51,
          "time": 75.5,
          "velocity": 1,
          "duration": 0.5
        },
        {
          "name": "A2",
          "midi": 45,
          "time": 76,
          "velocity": 1,
          "duration": 0.5
        },
        {
          "name": "C#3",
          "midi": 49,
          "time": 76,
          "velocity": 1,
          "duration": 0.5
        },
        {
          "name": "D#3",
          "midi": 51,
          "time": 76,
          "velocity": 1,
          "duration": 0.5
        },
        {
          "name": "D2",
          "midi": 38,
          "time": 76.5,
          "velocity": 1,
          "duration": 0.5
        },
        {
          "name": "D#3",
          "midi": 51,
          "time": 76.5,
          "velocity": 1,
          "duration": 0.5
        },
        {
          "name": "A2",
          "midi": 45,
          "time": 77,
          "velocity": 1,
          "duration": 0.5
        },
        {
          "name": "D#3",
          "midi": 51,
          "time": 77,
          "velocity": 1,
          "duration": 0.5
        },
        {
          "name": "D2",
          "midi": 38,
          "time": 77.5,
          "velocity": 1,
          "duration": 0.5
        },
        {
          "name": "D#3",
          "midi": 51,
          "time": 77.5,
          "velocity": 1,
          "duration": 0.5
        },
        {
          "name": "A2",
          "midi": 45,
          "time": 78,
          "velocity": 1,
          "duration": 0.5
        },
        {
          "name": "C#3",
          "midi": 49,
          "time": 78,
          "velocity": 1,
          "duration": 0.5
        },
        {
          "name": "D#3",
          "midi": 51,
          "time": 78,
          "velocity": 1,
          "duration": 0.5
        },
        {
          "name": "D2",
          "midi": 38,
          "time": 78.5,
          "velocity": 1,
          "duration": 0.5
        },
        {
          "name": "D#3",
          "midi": 51,
          "time": 78.5,
          "velocity": 1,
          "duration": 0.5
        },
        {
          "name": "A2",
          "midi": 45,
          "time": 79,
          "velocity": 1,
          "duration": 0.5
        },
        {
          "name": "C3",
          "midi": 48,
          "time": 79.5,
          "velocity": 1,
          "duration": 0.5
        },
        {
          "name": "D#3",
          "midi": 51,
          "time": 79.5,
          "velocity": 1,
          "duration": 0.5
        },
        {
          "name": "A2",
          "midi": 45,
          "time": 80,
          "velocity": 1,
          "duration": 0.5
        },
        {
          "name": "D#3",
          "midi": 51,
          "time": 80,
          "velocity": 1,
          "duration": 0.5
        },
        {
          "name": "D2",
          "midi": 38,
          "time": 80.5,
          "velocity": 1,
          "duration": 0.5
        },
        {
          "name": "D#3",
          "midi": 51,
          "time": 81,
          "velocity": 1,
          "duration": 0.5
        },
        {
          "name": "A2",
          "midi": 45,
          "time": 82.5,
          "velocity": 1,
          "duration": 0.5
        },
        {
          "name": "D#3",
          "midi": 51,
          "time": 82.5,
          "velocity": 1,
          "duration": 0.5
        },
        {
          "name": "D2",
          "midi": 38,
          "time": 83,
          "velocity": 1,
          "duration": 0.5
        },
        {
          "name": "A2",
          "midi": 45,
          "time": 83,
          "velocity": 1,
          "duration": 0.5
        },
        {
          "name": "D#3",
          "midi": 51,
          "time": 83,
          "velocity": 1,
          "duration": 0.5
        },
        {
          "name": "A2",
          "midi": 45,
          "time": 84,
          "velocity": 1,
          "duration": 0.5
        },
        {
          "name": "A#2",
          "midi": 46,
          "time": 84,
          "velocity": 1,
          "duration": 0.5
        },
        {
          "name": "A2",
          "midi": 45,
          "time": 84.5,
          "velocity": 1,
          "duration": 0.5
        },
        {
          "name": "A#2",
          "midi": 46,
          "time": 84.5,
          "velocity": 1,
          "duration": 0.5
        },
        {
          "name": "D2",
          "midi": 38,
          "time": 85,
          "velocity": 1,
          "duration": 0.5
        },
        {
          "name": "A#2",
          "midi": 46,
          "time": 85,
          "velocity": 1,
          "duration": 0.5
        },
        {
          "name": "A2",
          "midi": 45,
          "time": 86,
          "velocity": 1,
          "duration": 0.5
        },
        {
          "name": "D#3",
          "midi": 51,
          "time": 86,
          "velocity": 1,
          "duration": 0.5
        },
        {
          "name": "A2",
          "midi": 45,
          "time": 86.5,
          "velocity": 1,
          "duration": 0.5
        },
        {
          "name": "D#3",
          "midi": 51,
          "time": 86.5,
          "velocity": 1,
          "duration": 0.5
        },
        {
          "name": "D2",
          "midi": 38,
          "time": 87,
          "velocity": 1,
          "duration": 0.5
        },
        {
          "name": "D#3",
          "midi": 51,
          "time": 87,
          "velocity": 1,
          "duration": 0.5
        },
        {
          "name": "A2",
          "midi": 45,
          "time": 88,
          "velocity": 1,
          "duration": 0.5
        },
        {
          "name": "A#2",
          "midi": 46,
          "time": 88,
          "velocity": 1,
          "duration": 0.5
        },
        {
          "name": "A2",
          "midi": 45,
          "time": 88.5,
          "velocity": 1,
          "duration": 0.5
        },
        {
          "name": "A#2",
          "midi": 46,
          "time": 88.5,
          "velocity": 1,
          "duration": 0.5
        },
        {
          "name": "D2",
          "midi": 38,
          "time": 89,
          "velocity": 1,
          "duration": 0.5
        },
        {
          "name": "A2",
          "midi": 45,
          "time": 90,
          "velocity": 1,
          "duration": 0.5
        },
        {
          "name": "D#3",
          "midi": 51,
          "time": 90,
          "velocity": 1,
          "duration": 0.5
        },
        {
          "name": "A2",
          "midi": 45,
          "time": 90.5,
          "velocity": 1,
          "duration": 0.5
        },
        {
          "name": "D#3",
          "midi": 51,
          "time": 90.5,
          "velocity": 1,
          "duration": 0.5
        },
        {
          "name": "D2",
          "midi": 38,
          "time": 91,
          "velocity": 1,
          "duration": 0.5
        },
        {
          "name": "A2",
          "midi": 45,
          "time": 92.5,
          "velocity": 1,
          "duration": 0.5
        },
        {
          "name": "A#2",
          "midi": 46,
          "time": 92.5,
          "velocity": 1,
          "duration": 0.5
        },
        {
          "name": "D2",
          "midi": 38,
          "time": 93,
          "velocity": 1,
          "duration": 0.5
        },
        {
          "name": "A2",
          "midi": 45,
          "time": 94.5,
          "velocity": 1,
          "duration": 0.5
        },
        {
          "name": "D#3",
          "midi": 51,
          "time": 94.5,
          "velocity": 1,
          "duration": 0.5
        },
        {
          "name": "D2",
          "midi": 38,
          "time": 95,
          "velocity": 1,
          "duration": 0.5
        },
        {
          "name": "A2",
          "midi": 45,
          "time": 96.5,
          "velocity": 1,
          "duration": 0.5
        },
        {
          "name": "C3",
          "midi": 48,
          "time": 96.5,
          "velocity": 1,
          "duration": 0.5
        },
        {
          "name": "A2",
          "midi": 45,
          "time": 97,
          "velocity": 1,
          "duration": 0.5
        },
        {
          "name": "C3",
          "midi": 48,
          "time": 97,
          "velocity": 1,
          "duration": 0.5
        },
        {
          "name": "A2",
          "midi": 45,
          "time": 97.5,
          "velocity": 1,
          "duration": 0.5
        },
        {
          "name": "C3",
          "midi": 48,
          "time": 97.5,
          "velocity": 1,
          "duration": 0.5
        },
        {
          "name": "A2",
          "midi": 45,
          "time": 98,
          "velocity": 1,
          "duration": 0.5
        },
        {
          "name": "C3",
          "midi": 48,
          "time": 98,
          "velocity": 1,
          "duration": 0.5
        },
        {
          "name": "A2",
          "midi": 45,
          "time": 98.5,
          "velocity": 1,
          "duration": 0.5
        },
        {
          "name": "C3",
          "midi": 48,
          "time": 98.5,
          "velocity": 1,
          "duration": 0.5
        },
        {
          "name": "A2",
          "midi": 45,
          "time": 99,
          "velocity": 1,
          "duration": 0.5
        },
        {
          "name": "C3",
          "midi": 48,
          "time": 99,
          "velocity": 1,
          "duration": 0.5
        },
        {
          "name": "A2",
          "midi": 45,
          "time": 99.5,
          "velocity": 1,
          "duration": 0.5
        },
        {
          "name": "C3",
          "midi": 48,
          "time": 99.5,
          "velocity": 1,
          "duration": 0.5
        },
        {
          "name": "A2",
          "midi": 45,
          "time": 100,
          "velocity": 1,
          "duration": 0.5
        },
        {
          "name": "C3",
          "midi": 48,
          "time": 100,
          "velocity": 1,
          "duration": 0.5
        },
        {
          "name": "A2",
          "midi": 45,
          "time": 100.5,
          "velocity": 1,
          "duration": 0.5
        },
        {
          "name": "C3",
          "midi": 48,
          "time": 100.5,
          "velocity": 1,
          "duration": 0.5
        },
        {
          "name": "A2",
          "midi": 45,
          "time": 101,
          "velocity": 1,
          "duration": 0.5
        },
        {
          "name": "C3",
          "midi": 48,
          "time": 101,
          "velocity": 1,
          "duration": 0.5
        },
        {
          "name": "A2",
          "midi": 45,
          "time": 101.5,
          "velocity": 1,
          "duration": 0.5
        },
        {
          "name": "C3",
          "midi": 48,
          "time": 101.5,
          "velocity": 1,
          "duration": 0.5
        },
        {
          "name": "A2",
          "midi": 45,
          "time": 102,
          "velocity": 1,
          "duration": 0.5
        },
        {
          "name": "C3",
          "midi": 48,
          "time": 102,
          "velocity": 1,
          "duration": 0.5
        },
        {
          "name": "A2",
          "midi": 45,
          "time": 102.5,
          "velocity": 1,
          "duration": 0.5
        },
        {
          "name": "C3",
          "midi": 48,
          "time": 102.5,
          "velocity": 1,
          "duration": 0.5
        },
        {
          "name": "A2",
          "midi": 45,
          "time": 103,
          "velocity": 1,
          "duration": 0.5
        },
        {
          "name": "C3",
          "midi": 48,
          "time": 103,
          "velocity": 1,
          "duration": 0.5
        },
        {
          "name": "A2",
          "midi": 45,
          "time": 103.5,
          "velocity": 1,
          "duration": 0.5
        },
        {
          "name": "A#2",
          "midi": 46,
          "time": 103.5,
          "velocity": 1,
          "duration": 0.5
        },
        {
          "name": "C3",
          "midi": 48,
          "time": 103.5,
          "velocity": 1,
          "duration": 0.5
        },
        {
          "name": "D2",
          "midi": 38,
          "time": 104,
          "velocity": 1,
          "duration": 0.5
        },
        {
          "name": "A#2",
          "midi": 46,
          "time": 104,
          "velocity": 1,
          "duration": 0.5
        },
        {
          "name": "C#3",
          "midi": 49,
          "time": 104,
          "velocity": 1,
          "duration": 0.5
        },
        {
          "name": "A2",
          "midi": 45,
          "time": 104.5,
          "velocity": 1,
          "duration": 0.5
        },
        {
          "name": "A#2",
          "midi": 46,
          "time": 104.5,
          "velocity": 1,
          "duration": 0.5
        },
        {
          "name": "D2",
          "midi": 38,
          "time": 105,
          "velocity": 1,
          "duration": 0.5
        },
        {
          "name": "A#2",
          "midi": 46,
          "time": 105,
          "velocity": 1,
          "duration": 0.5
        },
        {
          "name": "A2",
          "midi": 45,
          "time": 105.5,
          "velocity": 1,
          "duration": 0.5
        },
        {
          "name": "A#2",
          "midi": 46,
          "time": 105.5,
          "velocity": 1,
          "duration": 0.5
        },
        {
          "name": "D2",
          "midi": 38,
          "time": 106,
          "velocity": 1,
          "duration": 0.5
        },
        {
          "name": "A#2",
          "midi": 46,
          "time": 106,
          "velocity": 1,
          "duration": 0.5
        },
        {
          "name": "A2",
          "midi": 45,
          "time": 106.5,
          "velocity": 1,
          "duration": 0.5
        },
        {
          "name": "A#2",
          "midi": 46,
          "time": 106.5,
          "velocity": 1,
          "duration": 0.5
        },
        {
          "name": "D2",
          "midi": 38,
          "time": 107,
          "velocity": 1,
          "duration": 0.5
        },
        {
          "name": "A#2",
          "midi": 46,
          "time": 107,
          "velocity": 1,
          "duration": 0.5
        },
        {
          "name": "A2",
          "midi": 45,
          "time": 107.5,
          "velocity": 1,
          "duration": 0.5
        },
        {
          "name": "A#2",
          "midi": 46,
          "time": 107.5,
          "velocity": 1,
          "duration": 0.5
        },
        {
          "name": "D2",
          "midi": 38,
          "time": 108,
          "velocity": 1,
          "duration": 0.5
        },
        {
          "name": "A#2",
          "midi": 46,
          "time": 108,
          "velocity": 1,
          "duration": 0.5
        },
        {
          "name": "C#3",
          "midi": 49,
          "time": 108,
          "velocity": 1,
          "duration": 0.5
        },
        {
          "name": "A2",
          "midi": 45,
          "time": 108.5,
          "velocity": 1,
          "duration": 0.5
        },
        {
          "name": "A#2",
          "midi": 46,
          "time": 108.5,
          "velocity": 1,
          "duration": 0.5
        },
        {
          "name": "D2",
          "midi": 38,
          "time": 109,
          "velocity": 1,
          "duration": 0.5
        },
        {
          "name": "A#2",
          "midi": 46,
          "time": 109,
          "velocity": 1,
          "duration": 0.5
        },
        {
          "name": "A2",
          "midi": 45,
          "time": 109.5,
          "velocity": 1,
          "duration": 0.5
        },
        {
          "name": "A#2",
          "midi": 46,
          "time": 109.5,
          "velocity": 1,
          "duration": 0.5
        },
        {
          "name": "D2",
          "midi": 38,
          "time": 110,
          "velocity": 1,
          "duration": 0.5
        },
        {
          "name": "A#2",
          "midi": 46,
          "time": 110,
          "velocity": 1,
          "duration": 0.5
        },
        {
          "name": "C#3",
          "midi": 49,
          "time": 110,
          "velocity": 1,
          "duration": 0.5
        },
        {
          "name": "D#3",
          "midi": 51,
          "time": 110,
          "velocity": 1,
          "duration": 0.5
        }
      ],
      "controlChanges": {},
      "id": 0,
      "name": "1-707 Core Kit 2",
      "channelNumber": 0,
      "isPercussion": false
    }
  ]
}